<svg xmlns="http://www.w3.org/2000/svg" xmlns:svgjs="http://svgjs.com/svgjs" xmlns:xlink="http://www.w3.org/1999/xlink" width="288" height="288"><svg xmlns="http://www.w3.org/2000/svg" xmlns:svgjs="http://svgjs.com/svgjs" xmlns:xlink="http://www.w3.org/1999/xlink" width="288" height="288" viewBox="0 0 288 288"><svg xmlns="http://www.w3.org/2000/svg" width="288" height="288" enable-background="new 0 0 52 52" viewBox="0 0 52 52"><path fill="#e9b85e" d="M25.4061165,6.9168997c0.9407883,2.3972921,1.6920013,4.8012657,2.2834225,7.3060846    c0.109951,0.4656754,0.6066818,0.8412094,1.0848141,0.8259306c2.7156887-0.0867815,5.3794212,0.0038433,8.0815086,0.2746572    c-0.3238029-0.56427-0.6476059-1.1285391-0.971405-1.6928091c-1.5434723,2.2271528-5.5992298,1.7129517-6.9373817,4.3126249    c-1.3695507,2.6606731,1.49506,6.8019257,2.4645157,9.2201881c0.3616047-0.4746914,0.7232094-0.9493809,1.0848122-1.4240704    c-2.8414288,0.3487606-3.9126301-5.0906868-6.5009708-5.1639175c-2.9934635-0.0846939-4.9324703,4.1428661-7.4226837,5.1074314    c0.4612942,0.2619152,0.9225903,0.5238304,1.3838844,0.7857456c-0.3732395-2.6618862,3.9304447-5.7792835,2.5446568-8.3783932    c-0.4397259-0.824728-2.0055199-1.2373886-2.7356911-1.8029613c-1.113266-0.8623085-3.4430733-2.2255335-4.1774321-3.273797    c-0.323802,0.5642691-0.647603,1.1285391-0.971405,1.6928091c2.6198969-0.218256,7.2710047,0.9074154,9.5776281-0.5776262    c2.1202412-1.3650446,1.9757671-4.7832632,2.8859234-6.853611c0.5772762-1.313139-1.3607559-2.4596229-1.9428082-1.1356182    c-0.5856152,1.3321104-0.730711,3.7535887-1.4755878,4.8374519c-1.5901775,2.3138514-6.6316242,1.2783384-9.0451555,1.4794035    c-0.7722635,0.0643349-1.5032139,0.9336748-0.9714041,1.6928082c0.6814203,0.9726973,1.2213049,1.2375441,2.2024622,1.9023018    c0.5014791,0.3397636,3.6783056,2.3266754,4.0615988,3.1248703c0.7920227,1.6493626-2.4802017,5.3388062-2.1224136,7.890501    c0.0789642,0.5631695,0.870451,0.9846172,1.3838825,0.7857437c1.1634541-0.450655,2.0304203-0.9803982,2.9710846-1.8104706    c0.6255436-0.552,1.2281132-1.1872292,1.7848873-1.8044033c0.3495941-0.3064232,0.6483803-0.6578426,0.8963604-1.0542564    c0.4474354-1.0476208,0.8624382-0.9330997,1.2450123,0.3435574c2.0591831,1.2262478,3.6782341,4.7999611,6.4281712,4.462431    c0.6384583-0.0783653,1.3876419-0.6686802,1.084816-1.4240704c-0.5874138-1.4652805-1.5426102-3.2187309-1.905714-4.7537155    c-0.7594509-3.2105103,0.1446896-3.4137249,3.2701817-4.9172382c1.2884483-0.6198063,2.0586929-0.9407187,2.8815804-2.1281004    c0.5332527-0.7694607-0.2017517-1.6156712-0.971405-1.6928091c-1.6637268-0.1667452-5.6935253,0.280818-6.9061394-0.6334629    c-1.2238846-0.9227781-1.7922916-4.6391091-2.3739796-6.1213484C27.052721,4.9860101,24.876049,5.5661979,25.4061165,6.9168997    L25.4061165,6.9168997z" class="color231f20 svgShape colore4e800"/><path fill="#e9b85e" d="M39.8921165,14.3234348c3.0214691,8.6414051-3.6031723,17.5298367-12.6884041,17.9425526    c-8.1447144,0.3699913-15.462122-7.2419395-15.685091-15.1360683c-0.117178-4.1486492,0.5641108-7.953022,4.2991924-10.4771423    c3.0911789-2.0889797,7.1337032-3.5157986,10.8975563-3.3544052c5.9869461,0.2567191,12.5607605,6.2145367,13.5906754,12.1237698    c0.2481575,1.4238176,2.4168472,0.8202944,2.1696281-0.5981398C40.9638062,6.1495209,31.8042564-0.0051107,23.3884335,1.3230374    c-4.3098698,0.6801643-9.5235138,2.8342521-12.2581625,6.4149609c-2.4691048,3.2330098-2.2475805,8.70261-1.6876984,12.5302181    c0.6857624,4.6881809,4.4738026,8.6035423,8.0428572,11.4915848c3.1748028,2.5690212,7.5977306,3.1751919,11.5605831,2.5658398    c9.7367287-1.4971695,16.310318-11.1778183,13.0157318-20.6003456    C41.586895,12.3672342,39.4124184,12.9515047,39.8921165,14.3234348L39.8921165,14.3234348z" class="color231f20 svgShape colore4e800"/><path fill="#e9b85e" d="M36.1425056 29.6030941c1.4450722 6.1478519 3.1266365 12.2947292 4.2262917 18.5145206.5508766-.4234924 1.1017494-.8469849 1.652626-1.2704735-2.1584129-1.4834061-3.9047928-3.2477188-5.8730164-4.8570709-.4633408-.3788605-.6196404-.7360039-1.3115997-.7533226-2.265274-.0567093-3.2274971 6.5576477-4.4836941 7.7128677.6401653.2651634 1.2803307.5303307 1.920496.7954941-.4557343-5.3232574.0881996-11.9914856-3.5397434-16.3487778-.9274349-1.113884-2.5116386.48526-1.5909901 1.590992 3.0878735 3.7086487 2.4898891 10.1924934 2.8807335 14.7577858.0829906.9694023 1.1696453 1.4859886 1.9204941.7954979.8802681-.8095131 1.434269-1.5957413 1.9193001-2.7071266.1753387-.4017715.3337936-.8328857.4411888-1.2567902.1266098-.4429321.2532234-.8858604.3798332-1.3287888-.6521454-2.0506859-.6969185-2.5786362-.1343155-1.583847.5934372.2916069 1.4220467 1.5471916 1.9915123 2.0084457 1.3802299 1.1179543 2.8818932 2.1124687 4.3441811 3.1174469.887661.6100578 1.8075638-.3941078 1.6526222-1.2704735-1.0997276-6.2201843-2.781086-12.3660889-4.2262917-18.5145187C37.9809456 27.595974 35.8109245 28.1924381 36.1425056 29.6030941L36.1425056 29.6030941zM14.0043192 28.3527641c-1.4786472 6.217083-3.8536758 12.8270187-4.2327757 19.2192993-.056488.9524879 1.2847376 1.5131035 1.920495.7954941 1.7533493-1.979084 3.8268738-5.2785454 6.3901224-6.2031631-.4612942-.2619171-.9225883-.5238304-1.3838825-.7857437.8148994 2.9043541 1.0679302 7.1162491 3.6461182 9.0592308.7418633.5590858 1.6372395-.2192383 1.6928101-.971405.383194-5.1866989 1.5405369-10.0931778 3.4584064-14.9209633.5346279-1.3457947-1.6405258-1.930027-2.1696262-.5981369-1.9911423 5.0122261-3.141758 10.1452179-3.5387802 15.5191002.56427-.3237991 1.1285381-.6476021 1.6928082-.971405-1.6108894-1.2140007-2.079792-5.8173485-2.6121101-7.7145615-.1548328-.5518379-.8078327-.9935379-1.3838825-.7857437-3.1964436 1.1530266-5.2048779 4.3232841-7.3829737 6.7818031.6401644.2651634 1.2803297.5303307 1.920495.7954941.3659382-6.1703529 2.7247124-12.6183281 4.1524029-18.6211605C16.5087566 27.543169 14.3397484 26.9424267 14.0043192 28.3527641L14.0043192 28.3527641z" class="color231f20 svgShape colore4e800"/></svg></svg></svg>