<svg xmlns="http://www.w3.org/2000/svg" xmlns:svgjs="http://svgjs.com/svgjs" xmlns:xlink="http://www.w3.org/1999/xlink" width="288" height="288"><svg xmlns="http://www.w3.org/2000/svg" width="288" height="288" enable-background="new 0 0 48 48" viewBox="0 0 48 48"><path fill="#e9b85e" d="M37.866,7.329v-0.04h-0.396c-0.093-0.005-0.182-0.028-0.277-0.028c-0.126,0-0.245,0.021-0.369,0.028h-1.817   c-1.874-4.235-6.088-7.204-11.015-7.204c-3.919,0-7.372,1.897-9.574,4.793h-2.296c-0.04-0.002-0.078-0.009-0.119-0.009   c-0.028,0-0.054,0.009-0.081,0.009h-0.294v0.028c-5.103,0.201-9.188,4.373-9.188,9.526c0,4.466,3.075,8.185,7.213,9.236v24.247   h2.328h24.021h2.345V23.853c4.067-0.568,7.214-4.001,7.214-8.225C45.561,11.237,42.166,7.677,37.866,7.329z M29.681,43.141h-2.242   H14.432v-6.952h19.135v6.952H29.681z M37.081,19.188h-3.514v9.451H14.432v-9.313h-2.309c-0.039,0.002-0.076,0.012-0.116,0.012   s-0.076-0.009-0.116-0.012h-0.15V19.31c-2.516-0.14-4.518-2.205-4.518-4.756c0-2.642,2.142-4.784,4.784-4.784   c0.087,0,0.166,0.028,0.252,0.033h4.954c0.944-2.857,3.601-4.933,6.777-4.933c3.964,0,7.175,3.214,7.175,7.176h5.602   c0.105-0.009,0.206-0.033,0.313-0.033c1.98,0,3.588,1.607,3.588,3.588C40.669,17.583,39.062,19.188,37.081,19.188z" class="color241F20 svgShape"/></svg></svg>