<svg xmlns="http://www.w3.org/2000/svg" xmlns:svgjs="http://svgjs.com/svgjs" xmlns:xlink="http://www.w3.org/1999/xlink" width="288" height="288"><svg xmlns="http://www.w3.org/2000/svg" xmlns:svgjs="http://svgjs.com/svgjs" xmlns:xlink="http://www.w3.org/1999/xlink" width="288" height="288" viewBox="0 0 288 288"><svg xmlns="http://www.w3.org/2000/svg" width="288" height="288" viewBox="0 0 24 24"><path fill="none" d="M0 0h24v24H0z"/><path fill="#e9b85e" d="M12 2c5.523 0 10 4.477 10 10s-4.477 10-10 10S2 17.523 2 12 6.477 2 12 2zm0 9c-2 0-3.667.333-5 1a5 5 0 0 0 10 0c-1.333-.667-3-1-5-1zM8.5 7c-1.152 0-2.122.78-2.412 1.84L6.05 9h4.9A2.5 2.5 0 0 0 8.5 7zm7 0c-1.152 0-2.122.78-2.412 1.84L13.05 9h4.9a2.5 2.5 0 0 0-2.45-2z" class="color000 svgShape colore4e800"/></svg></svg></svg>