<svg xmlns="http://www.w3.org/2000/svg" xmlns:svgjs="http://svgjs.com/svgjs" xmlns:xlink="http://www.w3.org/1999/xlink" width="288" height="288"><svg xmlns="http://www.w3.org/2000/svg" xmlns:svgjs="http://svgjs.com/svgjs" xmlns:xlink="http://www.w3.org/1999/xlink" width="288" height="288" viewBox="0 0 288 288"><svg xmlns="http://www.w3.org/2000/svg" width="288" height="288" enable-background="new 0 0 511.999 511.999" viewBox="0 0 511.999 511.999"><path fill="#e9b85e" d="M73.35,310.184c0.778,0.256,1.567,0.377,2.344,0.377c3.151,0,6.085-2.003,7.124-5.159l64.925-197.476		c6.633,1.096,13.51,0.858,20.189-0.885c14.068-3.67,27.857-6.313,40.984-7.854c4.114-0.484,7.057-4.211,6.573-8.324
		c-0.483-4.115-4.205-7.048-8.324-6.574c-13.811,1.623-28.285,4.396-43.02,8.239c-11.539,3.01-23.954-0.365-32.399-8.811
		c-4.213-4.213-7.241-9.508-8.755-15.313c-4.695-17.997,6.127-36.459,24.124-41.155c53.793-14.032,103.771-16.018,148.546-5.899
		c42.628,9.633,79.573,29.848,109.81,60.085c15.676,15.675,28.797,33.351,39,52.534c1.349,2.535,3.944,3.98,6.629,3.98
		c1.188-0.001,2.394-0.283,3.515-0.88c3.657-1.945,5.045-6.486,3.101-10.144c-10.901-20.497-24.91-39.371-41.637-56.099
		c-32.272-32.271-71.674-53.841-117.11-64.108c-47.136-10.652-99.502-8.629-155.639,6.017c-26,6.783-41.635,33.455-34.852,59.456
		c2.188,8.384,6.566,16.037,12.663,22.134c3.66,3.659,7.843,6.645,12.347,8.934L68.568,300.716
		C67.274,304.652,69.415,308.89,73.35,310.184z" class="color000 svgShape colore4e800"/><path fill="#e9b85e" d="M212.755 225.044c-8.383-8.384-19.528-13-31.383-13-11.855 0-23.001 4.616-31.384 12.999-17.305 17.306-17.305 45.462 0 62.767 8.383 8.384 19.528 13 31.384 13 11.855 0 23-4.616 31.383-12.999s13-19.528 13-31.384S221.137 233.426 212.755 225.044zM202.148 277.203c-5.55 5.551-12.929 8.606-20.777 8.606-7.849 0-15.228-3.056-20.777-8.606-11.456-11.456-11.456-30.097 0-41.553 5.55-5.551 12.929-8.606 20.777-8.606 7.848 0 15.227 3.056 20.777 8.606 5.55 5.549 8.606 12.928 8.606 20.776S207.698 271.654 202.148 277.203zM282.993 166.566h-40.936c-9.713 0-17.616 7.902-17.616 17.615 0 9.714 7.902 17.616 17.616 17.616h40.936c9.714 0 17.616-7.902 17.616-17.616C300.609 174.468 292.707 166.566 282.993 166.566zM282.993 186.797h-40.936c-1.442 0-2.616-1.174-2.616-2.616s1.173-2.615 2.616-2.615h40.936c1.442 0 2.616 1.173 2.616 2.615S284.436 186.797 282.993 186.797zM142.617 313.886c-3.648-2.973-8.237-4.343-12.917-3.866-9.663.988-16.72 9.653-15.732 19.316l4.164 40.723c.479 4.682 2.751 8.896 6.399 11.867 3.173 2.585 7.055 3.96 11.092 3.96.605 0 1.215-.031 1.825-.094 4.681-.479 8.896-2.752 11.867-6.4 2.972-3.648 4.345-8.235 3.866-12.916l-4.164-40.723C148.539 321.071 146.266 316.857 142.617 313.886zM137.685 369.919c-.256.314-.825.855-1.763.951-.935.097-1.604-.319-1.917-.574-.314-.256-.854-.824-.951-1.763l-4.164-40.723c-.096-.938.319-1.604.574-1.918.256-.314.825-.855 1.763-.951.094-.01.186-.014.274-.014.793 0 1.361.358 1.643.588.314.256.854.824.951 1.763l4.164 40.723C138.355 368.94 137.941 369.606 137.685 369.919zM218.568 134.384c1.92 0 3.84-.732 5.305-2.198 2.928-2.93 2.927-7.678-.002-10.606l-1.061-1.061c-2.931-2.929-7.678-2.929-10.607.003-2.928 2.93-2.927 7.678.002 10.606l1.061 1.061C214.731 133.652 216.649 134.384 218.568 134.384zM191.675 155.605c1.919 0 3.839-.732 5.303-2.196 2.929-2.93 2.929-7.678 0-10.607l-1.062-1.062c-2.929-2.928-7.678-2.928-10.606 0-2.929 2.93-2.929 7.678 0 10.607l1.062 1.062C187.836 154.872 189.755 155.605 191.675 155.605zM204.15 320.351c-2.929 2.93-2.929 7.678 0 10.607l1.062 1.062c1.464 1.464 3.384 2.196 5.303 2.196s3.839-.732 5.303-2.196c2.929-2.93 2.929-7.678 0-10.607l-1.062-1.062C211.827 317.423 207.078 317.423 204.15 320.351zM356.691 222.297c1.465 1.464 3.385 2.196 5.304 2.196s3.839-.732 5.304-2.196c2.929-2.93 2.929-7.678 0-10.607l-1.062-1.062c-2.93-2.928-7.678-2.928-10.607 0-2.929 2.93-2.929 7.678 0 10.607L356.691 222.297z" class="color000 svgShape colore4e800"/><path fill="#e9b85e" d="M480.111,187.616c-2.46-10.82-5.609-21.448-9.361-31.588c-1.438-3.885-5.751-5.869-9.637-4.432
		c-3.885,1.438-5.869,5.752-4.432,9.637c3.525,9.528,6.487,19.523,8.803,29.708c10.147,44.642,8.255,94.466-5.627,148.088
		c-4.662,18.006-23.105,28.864-41.11,24.201c-18.007-4.662-28.863-23.104-24.201-41.11c21.016-81.174,8.298-147.906-36.779-192.983
		c-30.473-30.472-70.525-46.154-119.047-46.614c-0.024,0-0.048,0-0.072,0c-4.109,0-7.459,3.312-7.498,7.429
		c-0.04,4.143,3.287,7.532,7.429,7.571c44.454,0.42,80.986,14.626,108.581,42.222c41.11,41.109,52.475,102.874,32.865,178.616
		c-1.812,6.998-1.988,14.039-0.79,20.728l-10.802,3.55v-16.985c0-4.143-3.357-7.5-7.5-7.5s-7.5,3.357-7.5,7.5v152.773
		c0,10.24-8.331,18.571-18.571,18.571s-18.571-8.331-18.571-18.571v-58.965c0-12.069-9.818-21.888-21.887-21.888
		c-12.069,0-21.888,9.818-21.888,21.888v0.628c0,12.092-9.838,21.93-21.93,21.93c-12.092,0-21.93-9.838-21.93-21.93v-56.398
		c0-4.143-3.358-7.5-7.5-7.5s-7.5,3.357-7.5,7.5v29.826L53.11,446.294c-3.628,1.192-7.405,0.295-10.101-2.402
		c-2.697-2.696-3.595-6.473-2.402-10.101l32.72-99.54c1.293-3.935-0.848-8.173-4.783-9.467c-3.934-1.295-8.173,0.849-9.467,4.783
		l-32.72,99.54c-2.952,8.98-0.636,18.71,6.045,25.391c4.762,4.763,11.072,7.308,17.558,7.307c2.613,0,5.255-0.413,7.834-1.261
		l155.862-51.236v10.782c0,20.363,16.566,36.93,36.93,36.93s36.93-16.566,36.93-36.93v-0.628c0-3.798,3.09-6.888,6.888-6.888
		c3.797,0,6.887,3.09,6.887,6.888v58.965c0,18.512,15.06,33.571,33.571,33.571s33.571-15.06,33.571-33.571V358.429l15.674-5.152
		c6.18,11.719,17.075,20.901,30.881,24.475c4.081,1.057,8.174,1.561,12.206,1.561c21.673-0.001,41.507-14.591,47.186-36.523
		C488.866,286.824,490.795,234.617,480.111,187.616z" class="color000 svgShape colore4e800"/><path fill="#e9b85e" d="M347.921 252.331c0-13.584-11.051-24.635-24.635-24.635-4.172 0-8.21 1.047-11.798 3.014-3.587-1.967-7.625-3.014-11.797-3.014-13.584 0-24.635 11.051-24.635 24.635s11.051 24.636 24.635 24.636c4.172 0 8.211-1.047 11.797-3.014 3.588 1.967 7.626 3.014 11.798 3.014C336.87 276.967 347.921 265.915 347.921 252.331zM323.286 261.967c-2.469 0-4.823-.946-6.629-2.664-1.448-1.377-3.309-2.065-5.169-2.065s-3.722.688-5.17 2.066c-1.805 1.717-4.158 2.663-6.627 2.663-5.313 0-9.635-4.322-9.635-9.636 0-5.313 4.322-9.635 9.635-9.635 2.469 0 4.822.945 6.628 2.663 2.896 2.754 7.44 2.753 10.337.001 1.807-1.718 4.161-2.664 6.63-2.664 5.313 0 9.635 4.322 9.635 9.635C332.921 257.645 328.599 261.967 323.286 261.967zM322.661 310.386c-6.883-6.883-16.033-10.674-25.767-10.674-9.732 0-18.883 3.791-25.766 10.673-14.207 14.208-14.207 37.324 0 51.532 7.104 7.104 16.436 10.655 25.766 10.655 9.331 0 18.662-3.552 25.766-10.655 6.883-6.883 10.674-16.033 10.674-25.766C333.334 326.418 329.543 317.268 322.661 310.386zM312.055 351.31L312.055 351.31c-8.359 8.36-21.962 8.358-30.318 0-8.359-8.358-8.359-21.959 0-30.318 4.049-4.049 9.433-6.279 15.158-6.279 5.727 0 11.11 2.23 15.16 6.28 4.049 4.049 6.279 9.433 6.279 15.159C318.334 341.877 316.104 347.261 312.055 351.31z" class="color000 svgShape colore4e800"/></svg></svg></svg>